<svg width="24" height="24" viewBox="0 0 52 52" fill="none" xmlns="http://www.w3.org/2000/svg">
<path d="M51.503 26C51.503 11.7778 39.9737 0.248505 25.7515 0.248505C11.5293 0.248505 0 11.7778 0 26C0 40.2222 11.5293 51.7515 25.7515 51.7515C39.9737 51.7515 51.503 40.2222 51.503 26Z" fill="url(#paint0_linear)"/>
<path d="M13.9395 27.0992L31.493 9.66652C31.8208 9.34085 32.3487 9.73716 32.1273 10.1429L25.594 22.1172C25.4481 22.3842 25.6415 22.71 25.9457 22.71H37.2363C37.6 22.71 37.7756 23.1555 37.5096 23.4038L17.7245 41.8691C17.3697 42.2002 16.8417 41.7337 17.1265 41.3409L26.4924 28.4204C26.6844 28.1555 26.4952 27.7844 26.1679 27.7844H14.2219C13.8642 27.7844 13.6857 27.3513 13.9395 27.0992V27.0992Z" fill="white"/>
<defs>
<linearGradient id="paint0_linear" x1="25.7515" y1="0.248505" x2="25.7515" y2="51.7515" gradientUnits="userSpaceOnUse">
<stop stop-color="#7BCBD4"/>
<stop offset="1" stop-color="#29C6B7"/>
</linearGradient>
</defs>
</svg>
